<?xml version="1.0" encoding="utf-8" ?>
<svg baseProfile="tiny" height="100%" version="1.2" width="100%" xmlns="http://www.w3.org/2000/svg" xmlns:ev="http://www.w3.org/2001/xml-events" xmlns:xlink="http://www.w3.org/1999/xlink"><defs /><path d="M 19.164061913433557,30.25462911957245 L 19.164061913433557,30.25462911957245 L 18.914487541794493,30.34770234950859 L 18.656551184406077,30.443779530077283 L 18.39017017265995,30.542698942401923 L 18.115285447914673,30.64414725724924 L 17.831883809399766,30.747685749173723 L 17.540017650672706,30.852793733377286 L 17.239815012077493,30.958915685686417 L 16.93148295612473,31.065511240670205 L 16.615304987382395,31.172104589378794 L 16.291659353962455,31.278214335296493 L 15.960953660583556,31.383474685580502 L 15.623602070479391,31.487634266074036 L 15.280000350618621,31.590535966806744 L 14.930521985505472,31.69208019203176 L 14.575501868216325,31.7921985792014 L 14.215301114369396,31.890875760169536 L 13.850248188963262,31.98802538873579 L 13.480753674365653,32.08393629809703 L 13.107242236191738,32.17875156949195 L 12.730060213317802,32.272632635449646 L 12.349515443515372,32.36566594177465 L 11.965893645420934,32.45786797442841 L 11.579482663307228,32.5491924188419 L 11.190585962742135,32.6395555714082 L 10.799528238044498,32.728862782971156 L 10.40660373899353,32.817046393480965 L 10.012119138787156,32.904039758633715 L 9.616391014022021,32.989774950387456 L 9.219745357236814,33.074182193767975 L 8.822517670015074,33.15719047414067 L 8.425053163593564,33.23872876933409 L 8.027706995822001,33.31872759535335 L 7.630844891970581,33.39712090945648 L 7.234541992813074,33.47388168388512 L 6.838875335048321,33.54898354423476 L 6.44392416499504,33.62240036732061 L 6.049769928918516,33.69410643931477 L 5.656496197172326,33.76407678056782 L 5.264188603929202,33.832287553919684 L 4.872934849870954,33.89871655633929 L 4.482824880239042,33.963343906598986 L 4.093933764190899,34.02614874024213 L 3.706336793436289,34.08711285672401 L 3.3201094337456736,34.14622063215449 L 2.9353271214722207,34.20345902068586 L 2.5520650037856614,34.25881749767293 L 2.170397658241028,34.31228787257272 L 1.7903988392694763,34.36386388550837 L 1.4121414046770653,34.41354051492719 L 1.0359396158806156,34.46128297139049 L 0.6621088045631918,34.507060943860395 L 0.29096587277015423,34.55084936798525 L -0.07717025814197506,34.59262992978826 L -0.44197862354668777,34.63239340735556 L -0.803137180751188,34.67014240325951 L -1.1603248400074635,34.705892444734204 L -1.5132240293675052,34.73967097499461 L -1.861543221544718,34.77151747784061 L -2.2049976753068026,34.801470816157 L -2.5433076799555345,34.82956597586755 L -2.8761959228168235,34.85583281376821 L -3.203382246284803,34.88029586019945 L -3.52458172975282,34.9029881925076 L -3.8395069157028,34.92396172493236 L -4.147874296396624,34.94329078970678 L -4.44973049888148,34.96107758693798 L -4.745129864501447,34.97741455437081 L -5.034130245181705,34.992385658789374 L -5.316790808011399,35.00607122631752 L -5.593176853252439,35.01855318489193 L -5.863356271090138,35.02990847000316 L -6.127406809444135,35.040206561996925 L -6.385385390235568,35.04952345390918 L -6.6376092191249745,35.05791665496686 L -6.884404604738704,35.06544827934269 L -7.126091302948099,35.07217718414039 L -7.3629894875372335,35.078157462269736 L -7.59541658867682,35.08344487779461 L -7.823691654109613,35.08809183801387 L -8.048135140056775,35.09214583385242 L -8.269069065619291,35.09564777867544 L -8.487487385735772,35.098667367013206 L -8.704378659068265,35.10126261636115 L -8.920725996557591,35.103479319146246 L -9.137506055801357,35.10534815399479 L -9.355681734689009,35.10688721812161 L -9.576200774918094,35.10809914707835 L -9.799972158432489,35.10900042805974 L -10.028051785192654,35.10951033140715 L -10.260875502947558,35.109494483030524 L -10.498997953024213,35.1087684841826 L -10.742992116485366,35.10715697685781 L -10.993424481633978,35.10447252519962 L -11.250856243499236,35.10051315945969 L -11.515834198673241,35.09506341768179 L -11.788882914757039,35.08789658077296 L -12.070485132972031,35.078784040843225 L -12.3590742309608,35.06680444872401 L -12.653156334617762,35.051050102510395 L -12.951286983327263,35.03061622652824 L -13.252060887200093,35.00459838127553 L -13.554106245920464,34.972089579247566 L -13.85608043525541,34.9321789087787 L -14.156668297461145,34.88395556167661 L -14.454589739790544,34.82652007815859 L -14.748626549656459,34.75922846184632 L -15.037604029696247,34.68146660643209 L -15.320410749964447,34.592634970702775 L -15.596010596921625,34.49212537454923 L -15.863442714339525,34.37930155619835 L -16.121832536350354,34.253477396822 L -16.37038184787354,34.113922760948235 L -16.608509808264802,33.95968899144774 L -16.83735246249923,33.79148259987332 L -17.057848397807533,33.61009128245866 L -17.27088400928889,33.416331744139676 L -17.477286615939036,33.211060287058174 L -17.677846875211625,32.99515526280085 L -17.87332358465501,32.769519998895134 L -18.064455741637442,32.535073617774394 L -18.251973117566674,32.29273804253647 L -18.43679112528574,32.043673611414384 L -18.619790605703383,31.78905762938381 L -18.801821388905616,31.5300782086327 L -18.983699996565246,31.267931205924604 L -19.166203523376545,31.003820907228327 L -19.350059647909493,30.73896656911077 L -19.535931156674092,30.474621438192695 L -19.72439459739656,30.212126144498583 L -19.915360522015856,29.95186927497315 L -20.10876621290954,29.69421515722259 L -20.304547352931667,29.43951732026228 L -20.502631081645223,29.188127469293143 L -20.70293304659126,28.940400985638057 L -20.90535449228198,28.69670209216427 L -21.109777431749873,28.45741227918416 L -21.316055853654554,28.222949854666798 L -21.523947469466002,27.993428210986114 L -21.73322895572557,27.768955481364912 L -21.94368267409452,27.54963857406764 L -22.15509271075063,27.335586380266854 L -22.36724263893665,27.126912018494156 L -22.579913171191045,26.923735335572815 L -22.792878646283842,26.72618709253028 L -23.005900710516453,26.53441747781624 L -23.219062576733734,26.348186713040473 L -23.432458657307908,26.167250400938713 L -23.646190685943417,25.991360005495608 L -23.860365967479858,25.820263719951086 L -24.07509606550555,25.653707291225423 L -24.290495523971817,25.49143486947741 L -24.506680458813296,25.333189996889068 L -24.723766816030867,25.178716920076997 L -24.941899124939898,25.027729062395487 L -25.16122282629839,24.879938858038468 L -25.381883577935845,24.735058017602547 L -25.6040272196327,24.592797501528388 L -25.827800502568817,24.45286692652707 L -26.053352998193702,24.31497291061053 L -26.280841081854515,24.178815275386473 L -26.51043618435024,24.04407884974936 L -26.742155000000274,23.91071358979707 L -26.9759964520724,23.778673292705804 L -27.211952133335423,23.647916433018835 L -27.450010678416973,23.51840522541063 L -27.690159985577143,23.390104645870757 L -27.932388648964885,23.262981536026885 L -28.176687247620283,23.137003578206127 L -28.423050042786468,23.01213774464892 L -28.671370557436873,22.888429156649263 L -28.921543250485943,22.765924785343742 L -29.173464663089852,22.644673636189527 L -29.42703384709175,22.524726652789674 L -29.68215246094407,22.406136653537086 L -29.938724599864212,22.288958441529065 L -30.19665626788254,22.173249309796383 L -30.45585417669756,22.059070397082287 L -30.715926853407467,21.94655811040051 L -30.976501115647864,21.835850810147253 L -31.237216426732125,21.727087981969557 L -31.497722145897818,21.620410224924925 L -31.757675963053007,21.515959123570394 L -32.01674284799388,21.413876872717285 L -32.274594201603065,21.314305702922905 L -32.53090701647795,21.217387136389313 L -32.78545027623661,21.123233644242323 L -33.03799538563446,21.03195712064647 L -33.28831686408713,20.943669285147504 L -33.53619229002405,20.858481052799732 L -33.78140192938208,20.776507314825007 L -34.02372855112951,20.697863696059194 L -34.26295678522609,20.622667495321714 L -34.49887198441526,20.551039202623333 L -34.731896295495964,20.482885460128347 L -34.96244643347449,20.418110647885392 L -35.19093564251848,20.356617494647224 L -35.41777443277675,20.298307574033828 L -35.643370468256315,20.243081958980582 L -35.868127729485344,20.190842134359812 L -36.09244492737439,20.141491282145914 L -36.316712969448425,20.0949360962833 L -36.54129613813334,20.050986401252946 L -36.76655315735236,20.009457375829886 L -36.992830363786084,19.970167206281722 L -37.22045320385256,19.932932407855695 L -37.44969708268059,19.89761502489765 L -37.68081239217708,19.864080047738213 L -37.9140286265071,19.832362856169905 L -38.150804446591394,19.801712692140043 L -38.38973541140019,19.772159493491227 L -38.630273981549536,19.74343484506431 L -38.87203143831447,19.71522819511261 L -39.11460622378087,19.687249630426145 L -39.357617729058866,19.659177084115505 L -39.60066011341021,19.630704124210357 L -39.84334483120387,19.601486030461363 L -40.0850773480868,19.571300518661875 L -40.32562018925895,19.539920070425424 L -40.56448683496371,19.50702842240327 L -40.801230373879065,19.472346149328917 L -41.03539837308744,19.43558162167447 L -41.26655544492787,19.39645177874381 L -41.494271328506606,19.354666892714317 L -41.71812325972234,19.309931790480928 L -41.9376971206222,19.26194249173165 L -42.15300027425464,19.21074283002235 L -42.36402095535532,19.156372458593644 L -42.570733819992974,19.098871408578095 L -42.7731034932922,19.038280694187996 L -42.97108708654476,18.974641966997336 L -43.164636060007936,18.907996793544783 L -43.35369756008731,18.838385531896346 L -43.538215103204244,18.765845427389742 L -43.718246915712264,18.690500380271015 L -43.893843782911595,18.612472669200386 L -44.06505088648244,18.531883204580627 L -44.231909667173554,18.44885186125359 L -44.3944595091951,18.363497278359016 L -44.55273805734553,18.275934676792176 L -44.706782427983605,18.18627548124594 L -44.85663024315054,18.09462644062654 L -45.002418591900316,18.00111997614483 L -45.14428070258165,17.905890637469984 L -45.28234646995684,17.809075134880896 L -45.41674270867772,17.710812150095915 L -45.547593491986916,17.61124239699984 L -45.6750202110929,17.510508439634126 L -45.79914181394822,17.40875486312908 L -45.92007477342731,17.306128245236025 L -46.037956196584254,17.202716382655108 L -46.15292160287145,17.09860906838897 L -46.26510495393002,16.99389824030371 L -46.37463850883071,16.88867797680526 L -46.481652837034765,16.7830447524671 L -46.58627662280469,16.677097641935543 L -46.688636559571876,16.570938933210478 L -46.788857165770594,16.46467524803279 L -46.88706369776468,16.358116465709415 L -46.983384653850116,16.251068199653883 L -47.077950670911655,16.143332189441303 L -47.170893842677785,16.03470668981283 L -47.262347345583066,15.924986876866692 L -47.35244516271818,15.813965183402777 L -47.441321919030834,15.701431661057041 L -47.52911273758577,15.587174390965718 L -47.61590748086034,15.470986885906928 L -47.701796971985836,15.352658972226957 L -47.78687299398909,15.231977196024326 L -47.87122834002272,15.108724887683756 L -47.954955626136645,14.982683627598412 L -48.038149400706104,14.85363187336486 L -48.12090407156246,14.721347401330883 L -48.20331602070654,14.585603823343858 L -48.285308287991185,14.446635146849287 L -48.366790194674856,14.304685139012781 L -48.447670311476244,14.159997442189137 L -48.52785578094925,14.012816172002253 L -48.607251880028294,13.863384809037084 L -48.685762116662524,13.711946573224377 L -48.76328809888816,13.558744171065811 L -48.83972959774054,13.404019977582116 L -48.914990891420544,13.247973649659158 L -48.98897630757236,13.09080335597743 L -49.06159027067949,12.932705482301603 L -49.13273754361376,12.77387430637729 L -49.20232357218117,12.614501615143237 L -49.27025494551735,12.454776240674455 L -49.33644002909812,12.294883450631676 L -49.400789859636724,12.13500401272561 L -49.463423331890716,11.974815648151333 L -49.524461536851675,11.81399600298208 L -49.58402701441881,11.652223256568874 L -49.64224316735856,11.489176468373227 L -49.69923374211459,11.324535782781268 L -49.75512235563354,11.157982536572563 L -49.81003206965839,10.98919928223796 L -49.86408505691974,10.817869716884308 L -49.91742202431573,10.643616179009598 L -49.970180761169956,10.466062215213187 L -50.02249534978454,10.284832213628485 L -50.074495469832165,10.099551042389004 L -50.12630574761133,9.909843710519127 L -50.17804512988022,9.715335115975675 L -50.22982626240967,9.515650045966865 L -50.281755153105664,9.310413976083485 L -50.33382539159159,9.099495780139396 L -50.38602712383271,8.882762056663074 L -50.43834619063051,8.660077571466829 L -50.49076355813062,8.43130542105935 L -50.543254731454695,8.19630709057321 L -50.595789076697756,7.954942515241145 L -50.64832897899654,7.7070702587355235 L -50.70082892808527,7.452548170465916 L -50.75318614524748,7.191369742369026 L -50.80529059228868,6.923527104365269 L -50.857023449044654,6.649012012570363 L -50.90825597238736,6.36781682439443 L -50.958848690782,6.079935640890579 L -51.008650990494544,5.785365615335803 L -51.05750095396446,5.4841084081702345 L -51.10522520822976,5.176172153899672 L -51.15156308349663,4.861875896108243 L -51.19625167661887,4.541545487483487 L -51.23902637726504,4.215514751316054 L -51.27962108531862,3.8841264264643276 L -51.317768584620495,3.54773393957021 L -51.35320457400989,3.206703971105355 L -51.38567702875684,2.8614168262877344 L -51.41495092606096,2.5122626477133516 L -51.440815116903345,2.159708248477819 L -51.46307767246574,1.8042330771697899 L -51.48157455546839,1.4463243735851892 L -51.496170017936706,1.0864703130798674 L -51.50675313016625,0.725150850407048 L -51.513212947762526,0.3628359850694541 L -51.51541238234783,-8.080967295244688e-07 L -51.513212845359774,-0.3628373135611871 L -51.50675293517134,-0.725151461058207 L -51.49616974682547,-1.086469921904112 L -51.48157422684163,-1.4463228433050708 L -51.463077302223,-1.8042304169203134 L -51.440814713680176,-2.159704612814955 L -51.41495048695565,-2.512258335005084 L -51.385676535425084,-2.8614122764188408 L -51.35320398962547,-3.206699762245045 L -51.31776786989634,-3.5477305359723603 L -51.27962020279051,-3.8841241792769647 L -51.23902529551755,-4.215513899948564 L -51.196250373685665,-4.541546161522622 L -51.15156154913019,-4.861878117405071 L -51.10522344533698,-5.176175838622274 L -51.05749897945065,-5.484113368860394 L -51.00864883547441,-5.785371563222381 L -50.95884638619401,-6.079942326308696 L -50.908253547373455,-6.36782403566406 L -50.85702092968036,-6.649019575091433 L -50.8052880005963,-6.923534879733526 L -50.75318349855395,-7.191377627513193 L -50.70082623871714,-7.452556096844208 L -50.64832625426538,-7.7070781916119815 L -50.59578631910412,-7.954950452992111 L -50.54325194181371,-8.196315030224225 L -50.49076073598547,-8.431313358651824 L -50.438343334586996,-8.660085502356125 L -50.38602423179819,-8.882769975767275 L -50.33382246095199,-9.099503682146299 L -50.28175218085402,-9.310421855620627 L -50.229823245246244,-9.515657897738384 L -50.178042064290295,-9.715342934853961 L -50.12630262878362,-9.909851491345274 L -50.07449229205624,-10.099558780195451 L -50.022492106957806,-10.284839903881537 L -49.970177447368236,-10.466069854076842 L -49.91741863440825,-10.643623763624028 L -49.864081587220305,-10.81787724565002 L -49.810028518581184,-10.98920675507769 L -49.755118724305056,-11.157989955087558 L -49.699230035067984,-11.324543150146264 L -49.64223939204138,-11.489183789120329 L -49.584023180293244,-11.652230536230315 L -49.52445765433175,-11.814003247593922 L -49.46341941122398,-11.97482286363632 L -49.4007859098251,-12.135011204186839 L -49.3364360569917,-12.294890621634789 L -49.27025095532657,-12.454783392736164 L -49.202319565428525,-12.614508747900967 L -49.13273351986921,-12.773881417900045 L -49.06158622838965,-12.932712569412837 L -48.98897224484688,-13.090810414601169 L -48.9149868066934,-13.247980675148213 L -48.83972549026834,-13.404026964954387 L -48.7632839691028,-13.558751115014484 L -48.68575796667,-13.711953467627609 L -48.607247692163675,-13.863391609559493 L -48.527851517010006,-14.01282279754914 L -48.447665911875816,-14.160003775800211 L -48.36678557759451,-14.30469102860608 L -48.285303348548005,-14.44664040593216 L -48.20331063002615,-14.585608231985756 L -48.12089807562816,-14.721350707480317 L -48.03814261624863,-14.853633796781164 L -47.954947927319346,-14.982684006455079 L -47.87121966101506,-15.10872367325299 L -47.78686333110808,-15.231974449919777 L -47.70178638581392,-15.352654864202949 L -47.61589609870736,-15.470981691661322 L -47.52910075628054,-15.587168489873203 L -47.44130960849786,-15.701425533557483 L -47.35243287115677,-15.813959407856846 L -47.26233536741601,-15.924981910587281 L -47.170882415254894,-16.03470287467302 L -47.077939971632745,-16.14332975522506 L -46.98337479756368,-16.251067266551697 L -46.88705473428579,-16.35811704650933 L -46.788849077263585,-16.46467725018802 L -46.688629257592346,-16.570942160926496 L -46.586269944566915,-16.67710179823964 L -46.48164663560639,-16.783049582734776 L -46.37463265449751,-16.88868326621241 L -46.2650993354528,-16.993903812254437 L -46.15291612860355,-17.098614783394034 L -46.03795079548364,-17.20272213740548 L -45.920069396063155,-17.306133971791855 L -45.799136433557194,-17.4087605281549 L -45.675014824786,-17.510514043691973 L -45.547588097626786,-17.611247939104544 L -45.41673730482057,-17.710817628141704 L -45.282341055820595,-17.809080545910415 L -45.14427527805911,-17.905895977884363 L -45.00241315760577,-18.001125241887536 L -44.85662480050048,-18.094631627375556 L -44.70677697931281,-18.186280584637732 L -44.552732606071835,-18.275939692723487 L -44.39445406026912,-18.3635021823271 L -44.23190422628413,-18.448856609520664 L -44.065045459218815,-18.531887734907787 L -43.893838373909745,-18.612476901230902 L -43.71824152782101,-18.69050421571203 L -43.5382097366075,-18.76584875001143 L -43.35369221128788,-18.83838820735211 L -43.16463072048741,-18.907998668865112 L -42.9710817439811,-18.974642953493284 L -42.77309813241144,-19.038280765241126 L -42.570728423348285,-19.098870598133196 L -42.36401550402712,-19.156370860091272 L -42.152994748576646,-19.210740595670465 L -41.93769150111253,-19.26193983208569 L -41.71811752850641,-19.309928974430065 L -41.49426547170314,-19.354664248320436 L -41.26654945388535,-19.39644956960459 L -41.03539224532157,-19.435580047442066 L -40.801224113749306,-19.472345346142017 L -40.56448045391661,-19.507028463384724 L -40.32561370534306,-19.539920966163013 L -40.085070785255965,-19.571302218103487 L -39.84333821818307,-19.601488422747277 L -39.60065347442436,-19.630707038738986 L -39.357611071598384,-19.659180377033174 L -39.11459955104523,-19.687253178031337 L -38.8720247485014,-19.715231895194812 L -38.630267268248,-19.743438616835554 L -38.38972866340422,-19.772163277506227 L -38.150797648634594,-19.801716450114117 L -37.91402176113692,-19.83236657143029 L -37.6808054468339,-19.864083720387274 L -37.449690061635444,-19.897618672021125 L -37.220446136722366,-19.932936055134252 L -36.99282330564956,-19.970170889751383 L -36.76654618907044,-20.009461141890228 L -36.54128936600938,-20.050990307386698 L -36.31670652612238,-20.094940211264056 L -36.09243897398335,-20.141495686672936 L -35.86812246007118,-20.190846922607687 L -35.64336603692043,-20.243087201243483 L -35.41777095397044,-20.298313316450702 L -35.19093319195105,-20.356623758402012 L -34.96244504914397,-20.418117428113746 L -34.73189597843921,-20.482892724736367 L -34.498872698732036,-20.551046891167353 L -34.26295845672969,-20.622675517979403 L -34.023731063391516,-20.697871932243984 L -33.78140516377876,-20.77651564437669 L -33.53619612687712,-20.85848935543815 L -33.28832118289563,-20.94367744039764 L -33.03800006465804,-21.031965008062954 L -32.785455191446616,-21.123241143801696 L -32.53091203964767,-21.217394129172394 L -32.274599196986294,-21.314312071861657 L -32.01674766610451,-21.413882502715097 L -31.757680472035275,-21.51596393774462 L -31.4977262343763,-21.620414182448652 L -31.237220005524843,-21.72709107713465 L -30.97650411910828,-21.835853071894313 L -30.715929240992434,-21.94655960187131 L -30.4558559354823,-22.059071214937042 L -30.19665741728742,-22.173249583285862 L -29.938725201530175,-22.28895833239331 L -29.682152582028568,-22.406136294210846 L -29.427033553985208,-22.524726151448792 L -29.173464017828984,-22.644673079300947 L -28.921542308411134,-22.76592423913124 L -28.671369365258688,-22.888428668186847 L -28.42304863634824,-23.012137342953146 L -28.176685648348375,-23.137003275446187 L -27.932386856798395,-23.262981328224548 L -27.69015799354349,-23.390104559856205 L -27.45000847764604,-23.518405314471927 L -27.21194971605631,-23.647916774487673 L -26.975993813868925,-23.778673986243373 L -26.742152142167477,-23.910714755701964 L -26.510433117312452,-24.044080626857774 L -26.28083783138189,-24.17881781838973 L -26.053349618728006,-24.314976387838446 L -25.827797068355405,-24.452871414607774 L -25.604023814729043,-24.592802994378467 L -25.3818802911069,-24.73506443064827 L -25.1612197481803,-24.87994603039339 L -24.941896345953943,-25.027736758470045 L -24.723764423620395,-25.178724831592973 L -24.50667853164277,-25.33319774602979 L -24.29049411688895,-25.491442012640537 L -24.075095186833654,-25.653713497822157 L -23.860365594096287,-25.820268757076754 L -23.646190771488143,-25.991363730637474 L -23.432459137089072,-26.16725275831753 L -23.21906337109187,-26.34818773143607 L -23.005901727822234,-26.534417268715817 L -22.79287978693724,-26.72618584779389 L -22.579914336140043,-26.923733324429787 L -22.367243761286357,-27.12690945844985 L -22.15509374664976,-27.335583448228025 L -21.94368359718673,-27.549635411748138 L -21.733229753399474,-27.768952198148078 L -21.5239481400483,-27.993424885624133 L -21.316056404037408,-28.222946536466722 L -21.109777874976974,-28.45740898908278 L -20.905354843895935,-28.696698823849697 L -20.702933307393838,-28.94039777131932 L -20.502631240777458,-29.188124374909737 L -20.30454739024419,-29.439514442997517 L -20.10876610090549,-29.694212624003892 L -19.915360227571803,-29.951867241468605 L -19.72439408339454,-30.212124794371256 L -19.53593038373488,-30.474620982406314 L -19.350058577057936,-30.73896724510632 L -19.166202139076628,-31.00382288169169 L -18.983698302846605,-31.26793457963194 L -18.801819406214538,-31.530083018968895 L -18.61978836845162,-31.78906385193474 L -18.43678867992455,-32.04368116117173 L -18.25197052102262,-32.292746774995344 L -18.064453059926542,-32.53508333013682 L -17.873320891402305,-32.769530431582965 L -17.677844227407633,-32.99516615643499 L -17.477284054961327,-33.21107138133351 L -17.270881561716717,-33.416342776726964 L -17.05784607608982,-33.61010198772048 L -16.837350265940216,-33.79149270698387 L -16.608507723687644,-33.959698222507434 L -16.370379851669586,-34.113930828171384 L -16.12183058961441,-34.2534840016707 L -15.863440789827399,-34.37930648813311 L -15.59600868044453,-34.492128510256414 L -15.32040883601256,-34.59263627629438 L -15.037602119093242,-34.68146613830775 L -14.74862464803474,-34.75922636675101 L -14.454587857729583,-34.82651659295589 L -14.156666452768679,-34.88395101302818 L -13.85607865990406,-34.932173714458564 L -13.554104532328711,-34.97208409627755 L -13.25205918693409,-35.00459290992884 L -12.951285206523101,-35.030611011287725 L -12.653154349285911,-35.05104533120659 L -12.359071861990834,-35.06680025004696 L -12.070482160768782,-35.07878048082834 L -11.788879072878903,-35.08789365866944 L -11.515829168827036,-35.09506106069224 L -11.250849801978116,-35.100511320509305 L -10.993416506487446,-35.104471181504934 L -10.74298259247096,-35.10715613051874 L -10.498986975774214,-35.10876816339163 L -10.26086328366023,-35.109494743913054 L -10.02803865567102,-35.10951126169479 L -9.799958580010031,-35.10900215579223 L -9.57618733395725,-35.10810183051974 L -9.355668939684742,-35.106890962040765 L -9.13749432612955,-35.10535299304573 L -8.920715652738204,-35.10348521822494 L -8.704369916660996,-35.101269467465684 L -8.487480350324436,-35.09867498621785 L -8.269063727467962,-35.09565590378935 L -8.048131366857385,-35.09215412208877 L -7.823689178720588,-35.088099860897074 L -7.595415148810709,-35.08345228493986 L -7.362988836915427,-35.07816398032076 L -7.126091217790917,-35.07218261735442 L -6.8844048883772695,-35.06545251036535 L -6.637609706014531,-35.05791964558237 L -6.385385949949358,-35.04952524562482 L -6.127407351742267,-35.04020727629456 L -5.863356759575123,-35.02990831313006 L -5.593177276493884,-35.018552337098264 L -5.31679116587529,-35.00606984618724 L -5.034130545590876,-34.99238388278895 L -4.745130121013556,-34.97741249652415 L -4.449730729042321,-34.9610753382863 L -4.1478745203029135,-34.94328841743941 L -3.8395071548867037,-34.92395927122694 L -3.524582006386701,-34.90298567306846 L -3.203382582546705,-34.88029326267475 L -2.8761963405505857,-34.85583009658879 L -2.543308200250206,-34.829563067704406 L -2.20499831776204,-34.80146761570679 L -1.8615440031344395,-34.77151385381355 L -1.5132249626043028,-34.739666766092476 L -1.160325929467001,-34.70588745966219 L -0.8031384146509651,-34.670136419394474 L -0.44197996529519334,-34.63238628077716 L -0.07717165698950444,-34.59262159681469 L 0.2909644767438989,-34.5508398486596 L 0.6621074774742975,-34.50705034504712 L 1.0359384277737818,-34.46127148912477 L 1.4121404269872644,-34.413528435623746 L 1.7903981401693867,-34.36385158576335 L 2.170397290605113,-34.312275819581906 L 2.5520649868084972,-34.258806084292644 L 2.935327454761122,-34.20344856006418 L 3.320110102258496,-34.1462113507359 L 3.7063377691486923,-34.08710488883855 L 4.093935006353811,-34.026142124627604 L 4.482826335253619,-33.9633385853518 L 4.872936452166563,-33.8987123769655 L 5.264190281250595,-33.8322842741888 L 5.6564978854911265,-33.76407416807696 L 6.049771568608347,-33.69410428081358 L 6.443925702341049,-33.62239847561407 L 6.838876725236819,-33.548981761648584 L 7.234543203284936,-33.47387988260908 L 7.6308459057096805,-33.39711898872023 L 8.027707814264389,-33.3187254748702 L 8.425053808561156,-33.23872637759079 L 8.82251818282012,-33.157187749681185 L 9.219745791286966,-33.07417907544726 L 9.616391428124016,-32.98977137336775 L 10.012119591512901,-32.904035654550455 L 10.406604284078385,-32.81704169388392 L 10.799528920699855,-32.72885742573404 L 11.190586816861051,-32.63954951047009 L 11.579483709986569,-32.54918563876225 L 11.965894891264664,-32.45786048895188 L 12.349516887436161,-32.36565780440325 L 12.730061852874549,-32.272623943708666 L 13.107244072670943,-32.17874246409961 L 13.480755716205264,-32.083926958688956 L 13.850250453976042,-31.988016025472042 L 14.215303630007753,-31.890866603882518 L 14.575504671209604,-31.79218986538238 L 14.930525113532324,-31.69207211683934 L 15.280003843194397,-31.590528679721906 L 15.623605962248197,-31.487627866146134 L 15.960957974878824,-31.383469222681146 L 16.291664099152147,-31.278209816122608 L 16.615310156675687,-31.172100986465544 L 16.93148853144178,-31.06550850101899 L 17.239820970579025,-30.95891373370575 L 17.540023956999168,-30.852792473273464 L 17.83189041935977,-30.74768506741955 L 18.115292310311972,-30.64414702391373 L 18.39017722944517,-30.54269901339858 L 18.656558369735755,-30.443779751731064 L 18.914494780641245,-30.347702565979 L 19.164069120123155,-30.25462918271292 L 19.405375178065366,-30.16457023691375 L 19.638419681542462,-30.076632863904823 L 19.863178507142482,-29.989870656610268 L 20.07962375844761,-29.903351905651768 L 20.287734161693134,-29.816167804622264 L 20.487496094591222,-29.727424350478895 L 20.678895462562533,-29.636236214830273 L 20.861910998783895,-29.5417250734633 L 21.03650099267972,-29.443038489574644 L 21.202773280188946,-29.33937750816991 L 21.360809465480788,-29.229987968588794 L 21.51068657939341,-29.114122663433324 L 21.652461210147184,-28.991077890971052 L 21.786237867847753,-28.859995887492143 L 21.912078397951372,-28.720117632677322 L 22.030027653533512,-28.57069745787894 L 22.140114092137527,-28.410997327538205 L 22.24325533340502,-28.241475700848056 L 22.340275584442743,-28.06255109721517 L 22.431984717085307,-27.87463989018541 L 22.519197667708674,-27.678167276668145 L 22.60273306979618,-27.47356261454758 L 22.683420866637594,-27.261257961981688 L 22.762105635756807,-27.04168226998092 L 22.83964878305023,-26.81525703979866 L 22.916885110833164,-26.58257679647304 L 22.99465016947573,-26.34422799173769 L 23.07377846912346,-26.10079481397616 L 23.15509770098651,-25.852862999553434 L 23.239419015574214,-25.60102611228833 L 23.32754171721404,-25.34588446269579 L 23.420259084186803,-25.088057663550156 L 23.518365810020747,-24.828173749900426 L 23.621952120917893,-24.566908526017748 L 23.731099067522116,-24.304960743182683 L 23.845885979876254,-24.0430366375672 L 23.96640056603153,-23.781846114371113 L 24.092745692010904,-23.522100992892938 L 24.225034861138653,-23.26451225070756 L 24.363388562477276,-23.009786712500283 L 24.507929044063413,-22.75862266685022 L 24.65855285188706,-22.511567316678192 L 24.815117363006475,-22.26913664958872 L 24.97748429854221,-22.031842612871962 L 25.14552525645754,-21.80019295468624 L 25.31910773416035,-21.574677652884855 L 25.498089235272342,-21.355761486114762 L 25.682318794469985,-21.143882710355037 L 25.871644344928697,-20.93945715858948 L 26.06596561838833,-20.74251730079763 L 26.265180950985567,-20.553091732803555 L 26.469175433426745,-20.37119202673527 L 26.677818127664015,-20.196809155778404 L 26.89096985059456,-20.029921589058382 L 27.108498306214837,-19.870511678756046 L 27.33030158533199,-19.71860427056804 L 27.556195501784735,-19.57436972506547 L 27.786073612878795,-19.43754723555341 L 28.01974598755384,-19.307958203755383 L 28.257021043893513,-19.185411321973874 L 28.497703672067324,-19.069708048804866 L 28.741607045892856,-18.96066519649886 L 28.988548024778133,-18.858117927881153 L 29.238347451930608,-18.761924672632084 L 29.490827019946664,-18.671965014163842 L 29.74554430596279,-18.587952438437103 L 30.002064943037016,-18.50960463875565 L 30.259959349425156,-18.436643859352703 L 30.51880070948445,-18.36879791799462 L 30.778163592436286,-18.30580156635411 L 31.037622841754054,-18.247397898521804 L 31.29675258811093,-18.19333997112687 L 31.555125166955364,-18.143392587832107 L 31.812354841932414,-18.097282744021815 L 32.06805655349703,-18.054749401122326 L 32.32184508170448,-18.015544859466672 L 32.573334531492286,-17.979436113275188 L 32.822138076496486,-17.94620638268613 L 33.067867929918386,-17.915656708345377 L 33.3101355364564,-17.887607591937854 L 33.548551949714806,-17.86190058742459 L 33.78315987941505,-17.838365935112247 L 34.0139983063394,-17.816846280507022 L 34.24110306544892,-17.797196212780175 L 34.46450704199102,-17.779281778777214 L 34.68424019175851,-17.76298009262138 L 34.90032948154725,-17.748179023465077 L 35.1127987884176,-17.734776964807864 L 35.32166876104851,-17.72268272036106 L 35.52706165659171,-17.711796954576226 L 35.72909311617495,-17.702026401452766 L 35.92787204062862,-17.693283038491295 L 36.12350040387598,-17.68548330392096 L 36.316073025245366,-17.678547362533536 L 36.50567731143611,-17.672398434882904 L 36.69239297198692,-17.666962221636457 L 36.8762917165275,-17.66216648876973 L 37.05743487913729,-17.657926218514184 L 37.235872001239734,-17.65415701256769 L 37.41164107019325,-17.6507747379017 L 37.58476885600844,-17.647695201607 L 37.755271322981876,-17.644833860608916 L 37.92315410261081,-17.64210556239014 L 38.08841301428472,-17.639424308607282 L 38.251034627763616,-17.636703055717312 L 38.41103047703669,-17.633858377952766 L 38.5684040486612,-17.630804804147147 L 38.72315155729866,-17.62745507122411 L 38.875262725075316,-17.62372024199728 L 39.024721563767386,-17.619509732010957 L 39.17150716668696,-17.614731278110963 L 39.31559450736865,-17.609290824458224 L 39.45695524748676,-17.60309232764735 L 39.59570993235498,-17.59606736214002 L 39.73197628041573,-17.588143275848633 L 39.86586962529996,-17.579243623683986 L 39.997503324080625,-17.569288562309538 L 40.126989141860975,-17.558195139109376 L 40.25443765891183,-17.54587766313009 L 40.379958713240015,-17.532248128856615 L 40.50366198955795,-17.517217305978445 L 40.62567763202167,-17.50072562715839 L 40.7461330016818,-17.482710973465604 L 40.865153227471154,-17.463109053815447 L 40.98286154833347,-17.44185406695941 L 41.099383831730535,-17.418874789022688 L 41.214842217004986,-17.394100102947892 L 41.32936683408797,-17.367447069885237 L 41.44303736041091,-17.338862150083102 L 41.555953167569676,-17.308395712383547 L 41.6681198952585,-17.276079420419986 L 41.77956292497683,-17.241956996684795 L 41.89030581221084,-17.206066829604374 L 42.00037487243982,-17.168449440877588 L 42.109796666275315,-17.12914401272342 L 42.21859921795093,-17.088189116237384 L 42.326812524821314,-17.045621630116926 L 42.43445225671862,-17.001496596306648 L 42.54153533669334,-16.955864187062417 L 42.648080554669896,-16.908770297559386 L 42.75410903186157,-16.860256670390815 L 42.859644719857634,-16.81036100628658 L 42.96471489454877,-16.75911703532765 L 43.069350727975284,-16.706554687175878 L 43.17358780997865,-16.652700138122167 L 43.27747310549289,-16.59754308846124 L 43.38105271795002,-16.541074150870095 L 43.484371936303035,-16.48328502471698 L 43.58747495818884,-16.424168191700232 L 43.69040508886271,-16.363717284791626 L 43.79320427658393,-16.30192654219821 L 43.895913068985955,-16.238791110417708 L 43.99857061450501,-16.1743074120394 L 44.10115308616227,-16.10845750759416 L 44.20363539532733,-16.041226158696215 L 44.30599134478508,-15.97260078408637 L 44.408193665337315,-15.90257129541209 L 44.510214174807494,-15.831130147718909 L 44.61202369129641,-15.758272152927981 L 44.71359211648563,-15.683994650616922 L 44.81488834256526,-15.608297623559663 L 44.91565111874193,-15.53114338554164 L 45.01562227293005,-15.452494603069812 L 45.114546180322684,-15.372313830584554 L 45.21216944904554,-15.290563236843818 L 45.30824045043165,-15.207204141322451 L 45.40250924308361,-15.12219694149129 L 45.49472721026283,-15.035500704364306 L 45.58464714471615,-14.947073157869456 L 45.67204969531827,-14.856839437711104 L 45.75671644144572,-14.764722306079015 L 45.83842995699253,-14.670642098821553 L 45.91697361762145,-14.574516247627336 L 45.99213087515564,-14.476261129978742 L 46.06368616376048,-14.375789754055189 L 46.1314224773063,-14.273018538377498 L 46.19513910644369,-14.167833819331959 L 46.255101644173195,-14.060102917488626 L 46.31155591607076,-13.949719144726814 L 46.36475042718284,-13.8365707719556 L 46.41493092281533,-13.720547352806703 L 46.46234205285976,-13.601537260938256 L 46.50722611783736,-13.479429695801988 L 46.54982332614644,-13.354114505235062 L 46.590371845996174,-13.22548207100605 L 46.6291406074791,-13.093419340179274 L 46.66639658649429,-12.95781456787694 L 46.70240490315961,-12.8185573026896 L 46.737428910518936,-12.675538438214724 L 46.77173027706604,-12.528650335892598 L 46.80556906480474,-12.377787053308186 L 46.83920381797076,-12.222844757825916 L 46.872891795771054,-12.063722505661826 L 46.9066913786975,-11.900387510886175 L 46.94066111620617,-11.732807145258755 L 46.974859390592265,-11.560949025455962 L 47.009344282193375,-11.38478107147649 L 47.04417348948806,-11.204271537137808 L 47.079404268679795,-11.01938905430114 L 47.11509333668984,-10.830102761824266 L 47.15129671190739,-10.636382674116573 L 47.187995768711026,-10.438334651573381 L 47.22517117702777,-10.236063812333251 L 47.26280328388944,-10.029674731093392 L 47.30087186349832,-9.81927142820213 L 47.339357272463594,-9.604956036151746 L 47.378237985146775,-9.386829732161392 L 47.41749140738246,-9.1649893737187 L 47.45709156859893,-8.939532712769406 L 47.496904879586076,-8.711069895144874 L 47.53681383438388,-8.480184251719926 L 47.57669818389639,-8.247465604158167 L 47.61643895112944,-8.013504338213995 L 47.655917952094576,-7.778894891742624 L 47.695019234307374,-7.544233569438259 L 47.73362938943171,-7.310118919909215 L 47.77163725989161,-7.077151675189677 L 47.808940883138355,-6.845852364760154 L 47.845441303271954,-6.61674400753928 L 47.881042369721584,-6.390352534197804 L 47.915650631499794,-6.167207183285044 L 47.949175523424074,-5.947840994797618 L 47.98152977114826,-5.73279136800341 L 48.01263027605215,-5.522600652057701 L 48.04239916703398,-5.3178166364872945 L 48.07087822284866,-5.118143274934061 L 48.09810953249663,-4.923283827124023 L 48.12413546151275,-4.732940736252436 L 48.14899856728228,-4.546815465293983 L 48.17274142389204,-4.364608307289562 L 48.195406387060885,-4.186018190509491 L 48.21703528557759,-4.010742486683792 L 48.23766906534484,-3.838476834198436 L 48.25736056845531,-3.668800296251917 L 48.27615935728918,-3.501289218460074 L 48.2941111683036,-3.3355172012201297 L 48.311257396456575,-3.171055100950342 L 48.32763452343061,-3.0074710525938726 L 48.34327353082726,-2.844330525817619 L 48.3581992255756,-2.681196415105204 L 48.37242953844761,-2.5176291818416896 L 48.385941890953546,-2.3535948716249284 L 48.39871256202519,-2.1890602605935525 L 48.410716717082295,-2.023992896707038 L 48.421928417113484,-1.8583611732222858 L 48.4323206334969,-1.692134424242649 L 48.44186529443908,-1.52528303312962 L 48.4505333305519,-1.3577785439204644 L 48.458294701658225,-1.1895937789998892 L 48.465113822960454,-1.020805634204412 L 48.47095719904745,-0.8514925115951576 L 48.47579346020033,-0.6817337100786334 L 48.4795918881898,-0.5116085042632633 L 48.48232804039146,-0.341208498344241 L 48.48398274568944,-0.1706246807448917 L 48.48458761765217,2.2917363299319984e-06 L 48.48398269659208,0.17062954458353427 L 48.482327931846086,0.3412140584709262 L 48.4795917049269,0.51161503734062 L 48.475793185423925,0.6817413534249976 L 48.47095681803607,0.8515012632963355 L 48.46511332642266,1.020815353386219 L 48.45829408897502,1.189604186281339 L 48.45053261280204,1.3577892219888243 L 48.441864497243486,1.5252934273924772 L 48.43231978501186,1.6921440849384708 L 48.42192754577641,1.858369754863989 L 48.41071584964765,2.0240001574987474 L 48.3987117218891,2.189066061861206 L 48.38594109672212,2.3535991773011404 L 48.37242880268046,2.517632058041326 L 48.358198553570794,2.6811980298166276 L 48.343272919211024,2.8443311487021097 L 48.32763397059258,3.0074709187194135 L 48.31125690260077,3.1710544114634267 L 48.294110735475414,3.3355161238823183 L 48.27615898927432,3.5012878880736302 L 48.25736027053288,3.6687988149718156 L 48.23766884389316,3.8384752717122446 L 48.21703514760517,4.01074088023955 L 48.19540633985673,4.186016544794905 L 48.172741472141865,4.3646066278014475 L 48.14899871314366,4.546813757954602 L 48.12413570461395,4.73293900705476 L 48.09810987002036,4.923282081798828 L 48.07087864974768,5.118141518654108 L 48.04239967641414,5.317814873636505 L 48.01263085969555,5.52259888608661 L 47.98153042013083,5.732789601382522 L 47.94917622866372,5.947839229068824 L 47.915651384477435,6.16720541913895 L 47.88104316305149,6.390350771613898 L 47.84544213108749,6.616742245951889 L 47.8089417413144,6.845850603224758 L 47.77163814613165,7.077149912541518 L 47.73363030324412,7.31011715492261 L 47.69502017679193,7.54423180098729 L 47.655918919666235,7.7788931514196795 L 47.61643993512438,8.013502690060392 L 47.5766991705885,8.247464144506433 L 47.53681480508283,8.480183109102656 L 47.496905810641465,8.71106923030694 L 47.45709243142558,8.939532718567596 L 47.41749216823506,9.164990275169334 L 47.378238605756465,9.386831784922126 L 47.33935772025994,9.604959400699661 L 47.30087211135828,9.819276170674062 L 47.26280330987849,10.029680823678094 L 47.22517096430486,10.236071133656983 L 47.18799530566895,10.43834298721689 L 47.15129599240609,10.636391717271431 L 47.115092360380324,10.830112114172069 L 47.07940304127872,11.019398227191296 L 47.044172028923235,11.20428013458611 L 47.00934261890422,11.38478878884042 L 46.97485756780308,11.56095564814979 L 46.940659190108775,11.732812547316902 L 46.9066894185412,11.900391653259188 L 46.87288988384656,12.063725434150175 L 46.83920204946459,12.222846600556446 L 46.80556754753236,12.377788017658531 L 46.77172909691099,12.528650599983306 L 46.73742813115574,12.675538152770041 L 46.70240456588003,12.818556592889076 L 46.66639671004634,12.957813535311562 L 46.629141187842556,13.093418064963974 L 46.59037285604373,13.225480614072984 L 46.54982471515353,13.354112910821469 L 46.507227810808374,13.479427994143556 L 46.46234397746608,13.601535512314937 L 46.414933009764226,13.720545646474946 L 46.36475261059046,13.836569225057794 L 46.311558133836094,13.94971790113726 L 46.25510383836722,14.06010214660351 L 46.195141223760615,14.167833714707687 L 46.131424469634865,14.273019316284328 L 46.06368798849421,14.375791652364692 L 45.99213247784052,14.476264286430258 L 45.91697493183107,14.574520700683772 L 45.83843090399916,14.670647789268603 L 45.75671692994191,14.764729078393524 L 45.67204962091604,14.856847041791108 L 45.584646389282504,14.947081250908964 L 45.49472564081507,15.03550885293406 L 45.40250671015014,15.122204623944453 L 45.30823686628667,15.207210979667945 L 45.21216478806943,15.29056899440904 L 45.114540479428406,15.372318409770093 L 45.015615632227096,15.452498043147685 L 44.91564370247247,15.53114586033606 L 44.81488038051525,15.608299439027347 L 44.713583906109136,15.683996242375363 L 44.61201560085952,15.7582740838437 L 44.5102065412611,15.831132845626477 L 44.40818679355262,15.902575056350056 L 44.30598550659974,15.972605775254227 L 44.20363082825964,16.041232421209056 L 44.10114999183661,16.10846495930746 L 43.99856915656143,16.17431585032586 L 43.89591337044949,16.238800215021453 L 43.79320641646056,16.301935877988836 L 43.69040905539278,16.36372650454542 L 43.58748064952906,16.424177033506567 L 43.48437916134441,16.483293309372534 L 43.38106119737587,16.541081779279693 L 43.27748247303774,16.597550038859243 L 43.17359761396809,16.652706463160712 L 43.06936043308181,16.70656051068694 L 42.9647238838792,16.759122548865793 L 42.85965251261843,16.81036637949593 L 42.754115285268846,16.860262050418648 L 42.64808506547642,16.908775808892322 L 42.541538042397775,16.955869931707543 L 42.434453236514436,17.0015026542548 L 42.326812000356306,17.04562806009216 L 42.21859755396092,17.088195956778346 L 42.10979437114696,17.129151283673423 L 42.000372382487356,17.16845712491406 L 41.89030348850126,17.206074874848028 L 41.779561050882386,17.241965318473433 L 41.66811867472446,17.27608790255128 L 41.555952724334965,17.30840420787765 L 41.443037738087746,17.33887048207314 L 41.329367999483445,17.367455033792933 L 41.21484404523978,17.394107464818457 L 41.09938620164011,17.418881373412745 L 40.982864354823086,17.441859749496604 L 40.86515637913659,17.46311376333486 L 40.74613642008693,17.482714692085512 L 40.62568125142963,17.50072838955848 L 40.50366575714299,17.517219198728576 L 40.37996258972218,17.53224928966702 L 40.2544416197743,17.5458782800258 L 40.126993140533735,17.55819536230777 L 39.99750729157529,17.569288504814452 L 39.86587346979629,17.579243361574857 L 39.73197988677413,17.588142848359013 L 39.59571316150654,17.59606677153918 L 39.45695793563596,17.603091538906188 L 39.315596464915494,17.609289764620385 L 39.17150817673588,17.61472983519488 L 39.02472148545928,17.61950783006409 L 38.87526149431191,17.623717841313574 L 38.7231491871231,17.627452169076374 L 38.56840062932788,17.63080143591989 L 38.41102617583749,17.63385461865003 L 38.25102968872359,17.636699021884898 L 38.08840775790086,17.63942016081082 L 37.923148925897934,17.642101508628414 L 37.755266526415056,17.644830057913108 L 37.584764644118216,17.64769175648391 L 37.41163755288266,17.65077170581314 L 37.2358691957443,17.654154396750638 L 37.057432712481585,17.657923968232442 L 36.87629002825427,17.662164496964568 L 36.69239151680873,17.666960321773796 L 36.50567576126269,17.672396396397446 L 36.31607113842365,17.6785450111946 L 36.123498022354035,17.6854805209035 L 35.927869086151354,17.693279760788545 L 35.72908958576065,17.702022623060127 L 35.52705761757959,17.71179272824981 L 35.32166434607103,17.722678159922623 L 35.11279419078439,17.73477224814908 L 34.90032495178472,17.74817439682778 L 34.684235926272606,17.762975757684845 L 34.46450318529017,17.779277894313513 L 34.24109971335218,17.79719289472735 L 34.01399550983154,17.81684360122937 L 33.78315764886634,17.838363922076677 L 33.54855025923101,17.86189922135961 L 33.31013432812126,17.88760680447581 L 33.06786711758734,17.91565637905297 L 32.822137578425625,17.946206390072167 L 32.573334272120505,17.979436333035085 L 32.32184499264669,18.01554516414126 L 32.06805657386314,18.05474966055591 L 31.812354918009852,18.09728282623549 L 31.555125251216698,18.14339235987412 L 31.296752637429062,18.193339299374216 L 31.037622814551234,18.24739664775358 L 30.778163461843754,18.30579965798706 L 30.518800460343275,18.36879532768015 L 30.259958975484377,18.436640614580913 L 30.00206444472126,18.509600817184165 L 29.745543688911393,18.587948167981153 L 29.49082629439871,18.671960475646404 L 29.238346633028613,18.76192010532561 L 28.988547134021626,18.8581136375499 L 28.741606098110424,18.960661403650715 L 28.49770267606729,19.069704891535032 L 28.25702000383315,19.18540885584311 L 28.01974490474958,19.30795639981813 L 27.786072487692998,19.43754597725182 L 27.556194335246126,19.574368804280667 L 27.330300378586877,19.718603383919813 L 27.108497066678364,19.870510421019333 L 26.890968586919946,20.029919660354004 L 26.67781684963543,20.196806367404832 L 26.469174150331934,20.371188297532722 L 26.26517966937153,20.55308708814244 L 26.065964341555567,20.74251187352004 L 25.871643073981147,20.93945119236933 L 25.682317531469263,21.143876564918074 L 25.498087987041732,21.355755641809917 L 25.319106510603984,21.574672506119246 L 25.14552406808637,21.800188814463382 L 24.977483152947904,22.031839696709724 L 24.815116261682764,22.269135080190335 L 24.65855178757536,22.51156711934195 L 24.50792799973822,22.758623768420893 L 24.36338751216865,23.009788942039307 L 24.225033772436944,23.264515341700164 L 24.092744537785325,23.522104681474403 L 23.96639932565843,23.78185014039388 L 23.84588463889819,24.04304074490081 L 23.731097616548837,24.304964679659754 L 23.621950553905414,24.566912043043875 L 23.51836412292157,24.828176601995395 L 23.420257272730993,25.08805960757712 L 23.32753977544623,25.345885256997658 L 23.23941693690759,25.601025606205766 L 23.155095480267825,25.852861132641426 L 23.073776105279407,26.100791616069127 L 22.994647666868456,26.344223582965117 L 22.9168824808593,26.582571388416547 L 22.839646044041906,26.815250936844297 L 22.762102812934625,27.041675871480745 L 22.683417991660892,27.261251764362616 L 22.602730163873495,27.473557023853214 L 22.519194742309683,27.678162608152807 L 22.43198177508055,27.874636366481642 L 22.340272621253636,28.06254884628033 L 22.2432523381369,28.241474754736842 L 22.140111048435994,28.410997621458854 L 22.03002454076718,28.570698829913194 L 21.912075194946205,28.720119823358107 L 21.786234547337358,28.859998665920653 L 21.652457735349536,28.99108106903453 L 21.510682915003418,29.114126065092005 L 21.36080558246105,29.229991418521504 L 21.202769143856223,29.339380870088313 L 21.03649656468198,29.44304166024049 L 20.861906239693003,29.541727977668018 L 20.67889033414643,29.636238801646275 L 20.487490579876,29.727426576630346 L 20.287728263161686,29.81616963576788 L 20.079617496131473,29.90335331954537 L 19.8631719172004,29.989871647190025 L 19.63841281519582,30.07663344673445 L 19.40536810112619,30.164570456095124 Z" fill="none" stroke="black" stroke-width="1" /></svg>