<?xml version="1.0" encoding="UTF-8" standalone="no"?>
<!-- Created with SVGEdit -->

<svg
   version="1.1"
   viewBox="0 0 60 60.000001"
   width="60mm"
   height="60mm"
   id="svg11"
   sodipodi:docname="circle_60.svg"
   inkscape:version="1.3.2 (091e20e, 2023-11-25)"
   xmlns:inkscape="http://www.inkscape.org/namespaces/inkscape"
   xmlns:sodipodi="http://sodipodi.sourceforge.net/DTD/sodipodi-0.dtd"
   xmlns="http://www.w3.org/2000/svg"
   xmlns:svg="http://www.w3.org/2000/svg">
  <defs
     id="defs15" />
  <sodipodi:namedview
     id="namedview13"
     pagecolor="#ffffff"
     bordercolor="#000000"
     borderopacity="0.25"
     inkscape:showpageshadow="2"
     inkscape:pageopacity="0.0"
     inkscape:pagecheckerboard="0"
     inkscape:deskcolor="#d1d1d1"
     inkscape:document-units="mm"
     showgrid="false"
     inkscape:zoom="1.3959694"
     inkscape:cx="127.86814"
     inkscape:cy="67.336721"
     inkscape:window-width="1440"
     inkscape:window-height="755"
     inkscape:window-x="0"
     inkscape:window-y="25"
     inkscape:window-maximized="0"
     inkscape:current-layer="svg11" />
  <path
     id="path339"
     style="fill:none;fill-opacity:1;stroke:#000000;stroke-width:1.36079;stroke-opacity:1;stop-color:#000000"
     d="m 35.90892,1.276065 c 1.908636,0.390565 3.749716,0.966583 5.503591,1.708409 1.753874,0.741827 3.420542,1.649459 4.980356,2.703248 1.559812,1.053789 3.01277,2.253735 4.339222,3.580184 1.32645,1.326453 2.526396,2.779411 3.580184,4.339222 1.05379,1.559815 1.961422,3.226483 2.70325,4.980357 0.741826,1.753875 1.317846,3.594955 1.70841,5.50359 0.390562,1.908636 0.59567,3.884826 0.59567,5.908923 0,2.024097 -0.205106,4.000287 -0.59567,5.908923 -0.390562,1.908637 -0.966582,3.749717 -1.70841,5.50359 -0.741826,1.753874 -1.649458,3.420544 -2.703248,4.980357 -1.053788,1.559813 -2.253734,3.012771 -3.580184,4.339222 -1.326452,1.326451 -2.77941,2.526395 -4.339222,3.580186 -1.559814,1.053787 -3.226481,1.961421 -4.980358,2.703248 -1.753873,0.741826 -3.594953,1.317844 -5.503589,1.708409 -1.908636,0.390564 -3.884828,0.59567 -5.908924,0.59567 -2.024096,0 -4.000288,-0.205106 -5.908924,-0.59567 C 22.18244,58.333368 20.34136,57.75735 18.587485,57.015524 16.83361,56.273697 15.166943,55.366063 13.607129,54.312276 12.047316,53.258485 10.594359,52.058541 9.2679069,50.73209 7.9414569,49.405637 6.7415109,47.952681 5.6877223,46.392868 4.6339336,44.833053 3.7263009,43.166385 2.9844746,41.412511 2.2426483,39.658636 1.6666283,37.817556 1.2760651,35.908919 0.88550181,34.000285 0.68039501,32.024095 0.68039501,29.999998 c 0,-2.024097 0.2051068,-4.000287 0.59567009,-5.908921 C 1.6666285,22.18244 2.2426483,20.34136 2.9844746,18.587485 3.7263011,16.833611 4.6339338,15.166943 5.6877225,13.607128 6.7415109,12.047317 7.9414569,10.594359 9.2679079,9.267908 10.594359,7.941457 12.047317,6.741511 13.607129,5.687722 15.166943,4.633933 16.83361,3.726301 18.587487,2.984474 20.34136,2.242648 22.18244,1.66663 24.091076,1.276065 25.99971,0.88550101 27.975902,0.68039501 29.999998,0.68039501 c 2.024096,0 4.000288,0.205106 5.908922,0.59566999 z"
     sodipodi:nodetypes="sssssssssssssssssssssssssssssssss" />
</svg>
